<?xml version="1.0" encoding="us-ascii" standalone="no"?><svg xmlns="http://www.w3.org/2000/svg" xmlns:xlink="http://www.w3.org/1999/xlink" contentStyleType="text/css" height="497px" preserveAspectRatio="none" style="width:974px;height:497px;background:#FFFFFF;" version="1.1" viewBox="0 0 974 497" width="974px" zoomAndPan="magnify"><defs/><g><text fill="#000000" font-family="sans-serif" font-size="14" font-weight="bold" lengthAdjust="spacing" textLength="385" x="287.58" y="23.5352">Devices-management-container/Devices-component</text><!--class DevicesComponent--><g id="elem_DevicesComponent"><rect codeLine="3" fill="#F1F1F1" height="97.4648" id="DevicesComponent" rx="2.5" ry="2.5" style="stroke:#181818;stroke-width:0.5;" width="431" x="178.66" y="44.4883"/><ellipse cx="323.91" cy="60.4883" fill="#ADD1B2" rx="11" ry="11" style="stroke:#181818;stroke-width:1.0;"/><path d="M326.3831,66.6313 Q325.8021,66.9302 325.1629,67.0796 Q324.5238,67.229 323.8182,67.229 Q321.3114,67.229 319.9915,65.5771 Q318.6717,63.9253 318.6717,60.8042 Q318.6717,57.6748 319.9915,56.0229 Q321.3114,54.3711 323.8182,54.3711 Q324.5238,54.3711 325.1712,54.5205 Q325.8187,54.6699 326.3831,54.9688 L326.3831,57.6914 Q325.7523,57.1104 325.1588,56.8406 Q324.5653,56.5708 323.9344,56.5708 Q322.5897,56.5708 321.9049,57.6375 Q321.2201,58.7041 321.2201,60.8042 Q321.2201,62.896 321.9049,63.9626 Q322.5897,65.0293 323.9344,65.0293 Q324.5653,65.0293 325.1588,64.7595 Q325.7523,64.4897 326.3831,63.9087 Z " fill="#000000"/><text fill="#000000" font-family="sans-serif" font-size="14" lengthAdjust="spacing" textLength="132" x="344.41" y="65.7793">DevicesComponent</text><line style="stroke:#181818;stroke-width:0.5;" x1="179.66" x2="608.66" y1="76.4883" y2="76.4883"/><line style="stroke:#181818;stroke-width:0.5;" x1="179.66" x2="608.66" y1="84.4883" y2="84.4883"/><text fill="#000000" font-family="sans-serif" font-size="14" lengthAdjust="spacing" textLength="346" x="184.66" y="102.0234">connect_device(device_connection_info: ConnInfo)</text><text fill="#000000" font-family="sans-serif" font-size="14" lengthAdjust="spacing" textLength="239" x="184.66" y="118.5117">disconnect_device(device_id: UUID)</text><text fill="#000000" font-family="sans-serif" font-size="14" lengthAdjust="spacing" textLength="419" x="184.66" y="135">update_device_connection(device_id: UUID, payload: Payload)</text></g><!--class DevicesRepository--><g id="elem_DevicesRepository"><rect codeLine="9" fill="#F1F1F1" height="97.4648" id="DevicesRepository" rx="2.5" ry="2.5" style="stroke:#181818;stroke-width:0.5;" width="319" x="91.66" y="393.4183"/><ellipse cx="184.91" cy="409.4183" fill="#ADD1B2" rx="11" ry="11" style="stroke:#181818;stroke-width:1.0;"/><path d="M187.3831,415.5613 Q186.8021,415.8602 186.1629,416.0096 Q185.5238,416.159 184.8182,416.159 Q182.3114,416.159 180.9915,414.5071 Q179.6717,412.8553 179.6717,409.7342 Q179.6717,406.6048 180.9915,404.9529 Q182.3114,403.3011 184.8182,403.3011 Q185.5238,403.3011 186.1712,403.4505 Q186.8187,403.5999 187.3831,403.8988 L187.3831,406.6214 Q186.7523,406.0404 186.1588,405.7706 Q185.5653,405.5008 184.9344,405.5008 Q183.5897,405.5008 182.9049,406.5675 Q182.2201,407.6341 182.2201,409.7342 Q182.2201,411.826 182.9049,412.8926 Q183.5897,413.9593 184.9344,413.9593 Q185.5653,413.9593 186.1588,413.6895 Q186.7523,413.4197 187.3831,412.8387 Z " fill="#000000"/><text fill="#000000" font-family="sans-serif" font-size="14" lengthAdjust="spacing" textLength="124" x="205.41" y="414.7093">DevicesRepository</text><line style="stroke:#181818;stroke-width:0.5;" x1="92.66" x2="409.66" y1="425.4183" y2="425.4183"/><line style="stroke:#181818;stroke-width:0.5;" x1="92.66" x2="409.66" y1="433.4183" y2="433.4183"/><text fill="#000000" font-family="sans-serif" font-size="14" lengthAdjust="spacing" textLength="187" x="97.66" y="450.9534">get_device(device_id: UUID)</text><text fill="#000000" font-family="sans-serif" font-size="14" lengthAdjust="spacing" textLength="307" x="97.66" y="467.4417">update_device(device_id: UUID, body: Device)</text><text fill="#000000" font-family="sans-serif" font-size="14" lengthAdjust="spacing" textLength="172" x="97.66" y="483.93">add_device(body: Device)</text></g><!--class DevicesAdapter--><g id="elem_DevicesAdapter"><rect codeLine="15" fill="#F1F1F1" height="97.4648" id="DevicesAdapter" rx="2.5" ry="2.5" style="stroke:#181818;stroke-width:0.5;" width="328" x="80.16" y="218.9483"/><ellipse cx="186.91" cy="234.9483" fill="#ADD1B2" rx="11" ry="11" style="stroke:#181818;stroke-width:1.0;"/><path d="M189.3831,241.0913 Q188.8021,241.3902 188.1629,241.5396 Q187.5238,241.689 186.8182,241.689 Q184.3114,241.689 182.9915,240.0371 Q181.6717,238.3853 181.6717,235.2642 Q181.6717,232.1348 182.9915,230.4829 Q184.3114,228.8311 186.8182,228.8311 Q187.5238,228.8311 188.1712,228.9805 Q188.8187,229.1299 189.3831,229.4287 L189.3831,232.1514 Q188.7523,231.5704 188.1588,231.3006 Q187.5653,231.0308 186.9344,231.0308 Q185.5897,231.0308 184.9049,232.0975 Q184.2201,233.1641 184.2201,235.2642 Q184.2201,237.356 184.9049,238.4226 Q185.5897,239.4893 186.9344,239.4893 Q187.5653,239.4893 188.1588,239.2195 Q188.7523,238.9497 189.3831,238.3687 Z " fill="#000000"/><text fill="#000000" font-family="sans-serif" font-size="14" lengthAdjust="spacing" textLength="106" x="207.41" y="240.2393">DevicesAdapter</text><line style="stroke:#181818;stroke-width:0.5;" x1="81.16" x2="407.16" y1="250.9483" y2="250.9483"/><line style="stroke:#181818;stroke-width:0.5;" x1="81.16" x2="407.16" y1="258.9483" y2="258.9483"/><text fill="#000000" font-family="sans-serif" font-size="14" lengthAdjust="spacing" textLength="296" x="86.16" y="276.4834">connect_device(connection_info: ConnInfo)</text><text fill="#000000" font-family="sans-serif" font-size="14" lengthAdjust="spacing" textLength="298" x="86.16" y="292.9717">get_device_info(connection_info: ConnInfo)</text><text fill="#000000" font-family="sans-serif" font-size="14" lengthAdjust="spacing" textLength="316" x="86.16" y="309.46">disconnect_device(connection_info: ConnInfo)</text></g><!--class DevicesMessagesHandler--><g id="elem_DevicesMessagesHandler"><rect codeLine="21" fill="#F1F1F1" height="64.4883" id="DevicesMessagesHandler" rx="2.5" ry="2.5" style="stroke:#181818;stroke-width:0.5;" width="203" x="443.66" y="235.4383"/><ellipse cx="458.66" cy="251.4383" fill="#ADD1B2" rx="11" ry="11" style="stroke:#181818;stroke-width:1.0;"/><path d="M461.1331,257.5813 Q460.5521,257.8802 459.9129,258.0296 Q459.2738,258.179 458.5682,258.179 Q456.0614,258.179 454.7415,256.5271 Q453.4217,254.8753 453.4217,251.7542 Q453.4217,248.6248 454.7415,246.9729 Q456.0614,245.3211 458.5682,245.3211 Q459.2738,245.3211 459.9212,245.4705 Q460.5687,245.6199 461.1331,245.9188 L461.1331,248.6414 Q460.5023,248.0604 459.9088,247.7906 Q459.3153,247.5208 458.6844,247.5208 Q457.3397,247.5208 456.6549,248.5875 Q455.9701,249.6541 455.9701,251.7542 Q455.9701,253.846 456.6549,254.9126 Q457.3397,255.9793 458.6844,255.9793 Q459.3153,255.9793 459.9088,255.7095 Q460.5023,255.4397 461.1331,254.8587 Z " fill="#000000"/><text fill="#000000" font-family="sans-serif" font-size="14" lengthAdjust="spacing" textLength="171" x="472.66" y="256.7293">DevicesMessagesHandler</text><line style="stroke:#181818;stroke-width:0.5;" x1="444.66" x2="645.66" y1="267.4383" y2="267.4383"/><line style="stroke:#181818;stroke-width:0.5;" x1="444.66" x2="645.66" y1="275.4383" y2="275.4383"/><text fill="#000000" font-family="sans-serif" font-size="14" lengthAdjust="spacing" textLength="169" x="449.66" y="292.9734">handle_device_updates()</text></g><!--class Outbox--><g id="elem_Outbox"><rect codeLine="25" fill="#F1F1F1" height="64.4883" id="Outbox" rx="2.5" ry="2.5" style="stroke:#181818;stroke-width:0.5;" width="283" x="681.66" y="235.4383"/><ellipse cx="792.91" cy="251.4383" fill="#ADD1B2" rx="11" ry="11" style="stroke:#181818;stroke-width:1.0;"/><path d="M795.3831,257.5813 Q794.8021,257.8802 794.1629,258.0296 Q793.5238,258.179 792.8182,258.179 Q790.3114,258.179 788.9915,256.5271 Q787.6717,254.8753 787.6717,251.7542 Q787.6717,248.6248 788.9915,246.9729 Q790.3114,245.3211 792.8182,245.3211 Q793.5238,245.3211 794.1712,245.4705 Q794.8187,245.6199 795.3831,245.9188 L795.3831,248.6414 Q794.7523,248.0604 794.1588,247.7906 Q793.5653,247.5208 792.9344,247.5208 Q791.5897,247.5208 790.9049,248.5875 Q790.2201,249.6541 790.2201,251.7542 Q790.2201,253.846 790.9049,254.9126 Q791.5897,255.9793 792.9344,255.9793 Q793.5653,255.9793 794.1588,255.7095 Q794.7523,255.4397 795.3831,254.8587 Z " fill="#000000"/><text fill="#000000" font-family="sans-serif" font-size="14" lengthAdjust="spacing" textLength="52" x="813.41" y="256.7293">Outbox</text><line style="stroke:#181818;stroke-width:0.5;" x1="682.66" x2="963.66" y1="267.4383" y2="267.4383"/><line style="stroke:#181818;stroke-width:0.5;" x1="682.66" x2="963.66" y1="275.4383" y2="275.4383"/><text fill="#000000" font-family="sans-serif" font-size="14" lengthAdjust="spacing" textLength="271" x="687.66" y="292.9734">send_event(device_id: UUID, body: json)</text></g><!--class MessagesHandler--><g id="elem_MessagesHandler"><rect codeLine="29" fill="#F1F1F1" height="64.4883" id="MessagesHandler" rx="2.5" ry="2.5" style="stroke:#181818;stroke-width:0.5;" width="283" x="681.66" y="409.8983"/><ellipse cx="758.91" cy="425.8983" fill="#ADD1B2" rx="11" ry="11" style="stroke:#181818;stroke-width:1.0;"/><path d="M761.3831,432.0413 Q760.8021,432.3402 760.1629,432.4896 Q759.5238,432.639 758.8182,432.639 Q756.3114,432.639 754.9915,430.9871 Q753.6717,429.3353 753.6717,426.2142 Q753.6717,423.0848 754.9915,421.4329 Q756.3114,419.7811 758.8182,419.7811 Q759.5238,419.7811 760.1712,419.9305 Q760.8187,420.0799 761.3831,420.3787 L761.3831,423.1014 Q760.7523,422.5204 760.1588,422.2506 Q759.5653,421.9808 758.9344,421.9808 Q757.5897,421.9808 756.9049,423.0475 Q756.2201,424.1141 756.2201,426.2142 Q756.2201,428.306 756.9049,429.3726 Q757.5897,430.4393 758.9344,430.4393 Q759.5653,430.4393 760.1588,430.1695 Q760.7523,429.8997 761.3831,429.3187 Z " fill="#000000"/><text fill="#000000" font-family="sans-serif" font-size="14" lengthAdjust="spacing" textLength="120" x="779.41" y="431.1893">MessagesHandler</text><line style="stroke:#181818;stroke-width:0.5;" x1="682.66" x2="963.66" y1="441.8983" y2="441.8983"/><line style="stroke:#181818;stroke-width:0.5;" x1="682.66" x2="963.66" y1="449.8983" y2="449.8983"/><text fill="#000000" font-family="sans-serif" font-size="14" lengthAdjust="spacing" textLength="271" x="687.66" y="467.4334">send_event(device_id: UUID, body: json)</text></g><!--link DevicesComponent to DevicesRepository--><g id="link_DevicesComponent_DevicesRepository"><path codeLine="33" d="M178.17,121.9683 C121.22,140.2283 66.01,170.1383 31.16,218.9483 C6,254.2083 9.36,278.9883 31.16,316.4183 C50.39,349.4183 76.7211,371.4736 110.0211,390.0636 " fill="none" id="DevicesComponent-to-DevicesRepository" style="stroke:#181818;stroke-width:1.0;"/><polygon fill="#181818" points="115.26,392.9883,109.3514,385.1087,110.8942,390.5511,105.4518,392.0939,115.26,392.9883" style="stroke:#181818;stroke-width:1.0;"/><text fill="#000000" font-family="sans-serif" font-size="13" lengthAdjust="spacing" textLength="29" x="32.16" y="272.7466">uses</text></g><!--link DevicesComponent to DevicesAdapter--><g id="link_DevicesComponent_DevicesAdapter"><path codeLine="34" d="M352.38,142.2583 C331.66,166.0783 310.648,190.2414 289.918,214.0714 " fill="none" id="DevicesComponent-to-DevicesAdapter" style="stroke:#181818;stroke-width:1.0;"/><polygon fill="#181818" points="285.98,218.5983,294.9049,214.4333,289.2616,214.8259,288.869,209.1827,285.98,218.5983" style="stroke:#181818;stroke-width:1.0;"/><text fill="#000000" font-family="sans-serif" font-size="13" lengthAdjust="spacing" textLength="29" x="324.66" y="185.5166">uses</text></g><!--link DevicesComponent to Outbox--><g id="link_DevicesComponent_Outbox"><path codeLine="35" d="M513.95,142.3683 C587.58,171.9683 674.263,206.8203 738.763,232.7503 " fill="none" id="DevicesComponent-to-Outbox" style="stroke:#181818;stroke-width:1.0;"/><polygon fill="#181818" points="744.33,234.9883,737.4715,227.9199,739.6908,233.1233,734.4875,235.3426,744.33,234.9883" style="stroke:#181818;stroke-width:1.0;"/><text fill="#000000" font-family="sans-serif" font-size="13" lengthAdjust="spacing" textLength="142" x="622.53" y="185.5166">publush device update</text></g><!--link Outbox to DevicesRepository--><g id="link_Outbox_DevicesRepository"><path codeLine="36" d="M717.92,300.4183 C631.93,326.3383 514.7446,361.6765 416.6246,391.2565 " fill="none" id="Outbox-to-DevicesRepository" style="stroke:#181818;stroke-width:1.0;"/><polygon fill="#181818" points="410.88,392.9883,420.6515,394.2203,415.6672,391.5451,418.3424,386.5608,410.88,392.9883" style="stroke:#181818;stroke-width:1.0;"/><text fill="#000000" font-family="sans-serif" font-size="13" lengthAdjust="spacing" textLength="172" x="555.32" y="359.9866">gets not published updates</text></g><!--link Outbox to MessagesHandler--><g id="link_Outbox_MessagesHandler"><path codeLine="37" d="M823.16,300.3183 C823.16,331.3383 823.16,372.3683 823.16,403.4183 " fill="none" id="Outbox-to-MessagesHandler" style="stroke:#181818;stroke-width:1.0;"/><polygon fill="#181818" points="823.16,409.4183,827.16,400.4183,823.16,404.4183,819.16,400.4183,823.16,409.4183" style="stroke:#181818;stroke-width:1.0;"/><text fill="#000000" font-family="sans-serif" font-size="13" lengthAdjust="spacing" textLength="142" x="824.16" y="359.9866">publush device update</text></g><!--reverse link DevicesComponent to DevicesMessagesHandler--><g id="link_DevicesComponent_DevicesMessagesHandler"><path codeLine="38" d="M440.1819,146.773 C466.0919,176.373 494.65,208.9883 517.38,234.9483 " fill="none" id="DevicesComponent-backto-DevicesMessagesHandler" style="stroke:#181818;stroke-width:1.0;"/><polygon fill="#181818" points="436.23,142.2583,439.148,151.6649,439.5232,146.0205,445.1676,146.3957,436.23,142.2583" style="stroke:#181818;stroke-width:1.0;"/><text fill="#000000" font-family="sans-serif" font-size="13" lengthAdjust="spacing" textLength="29" x="475.19" y="185.5166">uses</text></g><!--SRC=[bL9DIyGm4BttL-JO1OFt8eBi7jo3ACAUIzgCkv5s9dJInIB-TxDjghLVkAUcUU_DlBmPPrm1OWTdamFBKg4wGWdeP4xeb46eRdimfz8IUan4KLuevbws_G4-8o6y425tgMx1kFkauTOGfWRVA15RVx7tfusNQCFpAgCJSJZiTnTIRRLoa4xgZRatmggc8EL_Nxh39leQENu5IsmSLKrh-GZ_RZpjbf5kab3uGbTQzzo_qDZ4WrRMGJKNscfQlsvRCBuosXNwsE4JCFjzu4U5kWXEJ-svDz1bm_50-roxZ3vQBWFg5Cv-CvPYUsV2WNQkuHL59lievVtCo1DHC_0gkv_D6ZKyD16spegQJwAp5_Ob2l2I1Jz55aYkLHi-WGv27Yh7WImrcnYyat9XYjsJlW40]--></g></svg>