<?plantuml 1.2026.0?><svg xmlns="http://www.w3.org/2000/svg" xmlns:xlink="http://www.w3.org/1999/xlink" contentStyleType="text/css" data-diagram-type="CLASS" height="572px" preserveAspectRatio="none" style="width:864px;height:572px;background:#FFFFFF;" version="1.1" viewBox="0 0 864 572" width="864px" zoomAndPan="magnify"><defs/><g><!--class User--><g class="entity" data-qualified-name="User" data-source-line="1" id="ent0002"><rect fill="#F1F1F1" height="113.1875" rx="2.5" ry="2.5" style="stroke:#181818;stroke-width:0.5;" width="147.0371" x="232" y="7"/><ellipse cx="285.3135" cy="23" fill="#ADD1B2" rx="11" ry="11" style="stroke:#181818;stroke-width:1;"/><path d="M289.4229,29 L281.7041,29 L281.7041,16.6094 L289.4229,16.6094 L289.4229,18.7656 L284.1572,18.7656 L284.1572,21.4375 L288.9229,21.4375 L288.9229,23.5938 L284.1572,23.5938 L284.1572,26.8438 L289.4229,26.8438 L289.4229,29 Z " fill="#000000"/><text fill="#000000" font-family="sans-serif" font-size="14" lengthAdjust="spacing" textLength="31.9102" x="305.8135" y="27.8467">User</text><line style="stroke:#181818;stroke-width:0.5;" x1="233" x2="378.0371" y1="39" y2="39"/><g data-visibility-modifier="PUBLIC_METHOD"><ellipse cx="243" cy="52.6484" fill="#84BE84" rx="3" ry="3" style="stroke:#038048;stroke-width:1;"/></g><text fill="#000000" font-family="sans-serif" font-size="14" lengthAdjust="spacing" textLength="94.7939" x="252" y="55.9951">id : UUID (PK)</text><line style="stroke:#181818;stroke-width:1;" x1="233" x2="378.0371" y1="63.2969" y2="63.2969"/><text fill="#000000" font-family="sans-serif" font-size="14" lengthAdjust="spacing" textLength="67.4092" x="238" y="80.292">name: str</text><text fill="#000000" font-family="sans-serif" font-size="14" lengthAdjust="spacing" textLength="66.3154" x="238" y="96.5889">email: str</text><text fill="#000000" font-family="sans-serif" font-size="14" lengthAdjust="spacing" textLength="135.0371" x="238" y="112.8857">password_hash: str</text></g><!--class Session--><g class="entity" data-qualified-name="Session" data-source-line="9" id="ent0003"><rect fill="#F1F1F1" height="96.8906" rx="2.5" ry="2.5" style="stroke:#181818;stroke-width:0.5;" width="170.6826" x="19" y="213.5"/><ellipse cx="73.3833" cy="229.5" fill="#ADD1B2" rx="11" ry="11" style="stroke:#181818;stroke-width:1;"/><path d="M77.4927,235.5 L69.7739,235.5 L69.7739,223.1094 L77.4927,223.1094 L77.4927,225.2656 L72.2271,225.2656 L72.2271,227.9375 L76.9927,227.9375 L76.9927,230.0938 L72.2271,230.0938 L72.2271,233.3438 L77.4927,233.3438 L77.4927,235.5 Z " fill="#000000"/><text fill="#000000" font-family="sans-serif" font-size="14" lengthAdjust="spacing" textLength="53.416" x="93.8833" y="234.3467">Session</text><line style="stroke:#181818;stroke-width:0.5;" x1="20" x2="188.6826" y1="245.5" y2="245.5"/><g data-visibility-modifier="PUBLIC_METHOD"><ellipse cx="30" cy="259.1484" fill="#84BE84" rx="3" ry="3" style="stroke:#038048;stroke-width:1;"/></g><text fill="#000000" font-family="sans-serif" font-size="14" lengthAdjust="spacing" textLength="94.7939" x="39" y="262.4951">id : UUID (PK)</text><line style="stroke:#181818;stroke-width:1;" x1="20" x2="188.6826" y1="269.7969" y2="269.7969"/><text fill="#000000" font-family="sans-serif" font-size="14" lengthAdjust="spacing" textLength="128.3994" x="25" y="286.792">session_key: UUID</text><text fill="#000000" font-family="sans-serif" font-size="14" lengthAdjust="spacing" textLength="158.6826" x="25" y="303.0889">expired_at: timestamp</text></g><!--class Device--><g class="entity" data-qualified-name="Device" data-source-line="16" id="ent0004"><rect fill="#F1F1F1" height="162.0781" rx="2.5" ry="2.5" style="stroke:#181818;stroke-width:0.5;" width="160.1826" x="225.5" y="181"/><ellipse cx="277.4019" cy="197" fill="#ADD1B2" rx="11" ry="11" style="stroke:#181818;stroke-width:1;"/><path d="M281.5112,203 L273.7925,203 L273.7925,190.6094 L281.5112,190.6094 L281.5112,192.7656 L276.2456,192.7656 L276.2456,195.4375 L281.0112,195.4375 L281.0112,197.5938 L276.2456,197.5938 L276.2456,200.8438 L281.5112,200.8438 L281.5112,203 Z " fill="#000000"/><text fill="#000000" font-family="sans-serif" font-size="14" lengthAdjust="spacing" textLength="47.8789" x="297.9019" y="201.8467">Device</text><line style="stroke:#181818;stroke-width:0.5;" x1="226.5" x2="384.6826" y1="213" y2="213"/><g data-visibility-modifier="PUBLIC_METHOD"><ellipse cx="236.5" cy="226.6484" fill="#84BE84" rx="3" ry="3" style="stroke:#038048;stroke-width:1;"/></g><text fill="#000000" font-family="sans-serif" font-size="14" lengthAdjust="spacing" textLength="94.7939" x="245.5" y="229.9951">id : UUID (PK)</text><line style="stroke:#181818;stroke-width:1;" x1="226.5" x2="384.6826" y1="237.2969" y2="237.2969"/><text fill="#000000" font-family="sans-serif" font-size="14" lengthAdjust="spacing" textLength="89.0586" x="231.5" y="254.292">name: string</text><text fill="#000000" font-family="sans-serif" font-size="14" lengthAdjust="spacing" textLength="148.1826" x="231.5" y="270.5889">connection_info: json</text><text fill="#000000" font-family="sans-serif" font-size="14" lengthAdjust="spacing" textLength="80.4385" x="231.5" y="286.8857">type: enum</text><text fill="#000000" font-family="sans-serif" font-size="14" lengthAdjust="spacing" textLength="105.5469" x="231.5" y="303.1826">description: str</text><text fill="#000000" font-family="sans-serif" font-size="14" lengthAdjust="spacing" textLength="83.2549" x="231.5" y="319.4795">location: str</text><text fill="#000000" font-family="sans-serif" font-size="14" lengthAdjust="spacing" textLength="68.0381" x="231.5" y="335.7764">tags: json</text></g><!--class Scenario--><g class="entity" data-qualified-name="Scenario" data-source-line="27" id="ent0005"><rect fill="#F1F1F1" height="96.8906" rx="2.5" ry="2.5" style="stroke:#181818;stroke-width:0.5;" width="139.4902" x="431" y="213.5"/><ellipse cx="466.9834" cy="229.5" fill="#ADD1B2" rx="11" ry="11" style="stroke:#181818;stroke-width:1;"/><path d="M471.0928,235.5 L463.3741,235.5 L463.3741,223.1094 L471.0928,223.1094 L471.0928,225.2656 L465.8272,225.2656 L465.8272,227.9375 L470.5928,227.9375 L470.5928,230.0938 L465.8272,230.0938 L465.8272,233.3438 L471.0928,233.3438 L471.0928,235.5 Z " fill="#000000"/><text fill="#000000" font-family="sans-serif" font-size="14" lengthAdjust="spacing" textLength="60.8604" x="485.6464" y="234.3467">Scenario</text><line style="stroke:#181818;stroke-width:0.5;" x1="432" x2="569.4902" y1="245.5" y2="245.5"/><g data-visibility-modifier="PUBLIC_METHOD"><ellipse cx="442" cy="259.1484" fill="#84BE84" rx="3" ry="3" style="stroke:#038048;stroke-width:1;"/></g><text fill="#000000" font-family="sans-serif" font-size="14" lengthAdjust="spacing" textLength="94.7939" x="451" y="262.4951">id : UUID (PK)</text><line style="stroke:#181818;stroke-width:1;" x1="432" x2="569.4902" y1="269.7969" y2="269.7969"/><text fill="#000000" font-family="sans-serif" font-size="14" lengthAdjust="spacing" textLength="67.4092" x="437" y="286.792">name: str</text><text fill="#000000" font-family="sans-serif" font-size="14" lengthAdjust="spacing" textLength="127.4902" x="437" y="303.0889">user_id: UUID (FK)</text></g><!--class DeviceCommand--><g class="entity" data-qualified-name="DeviceCommand" data-source-line="33" id="ent0006"><rect fill="#F1F1F1" height="145.7813" rx="2.5" ry="2.5" style="stroke:#181818;stroke-width:0.5;" width="208.9912" x="421" y="420"/><ellipse cx="461.7208" cy="436" fill="#ADD1B2" rx="11" ry="11" style="stroke:#181818;stroke-width:1;"/><path d="M465.8301,442 L458.1114,442 L458.1114,429.6094 L465.8301,429.6094 L465.8301,431.7656 L460.5645,431.7656 L460.5645,434.4375 L465.3301,434.4375 L465.3301,436.5938 L460.5645,436.5938 L460.5645,439.8438 L465.8301,439.8438 L465.8301,442 Z " fill="#000000"/><text fill="#000000" font-family="sans-serif" font-size="14" lengthAdjust="spacing" textLength="119.834" x="481.4365" y="440.8467">DeviceCommand</text><line style="stroke:#181818;stroke-width:0.5;" x1="422" x2="628.9912" y1="452" y2="452"/><g data-visibility-modifier="PUBLIC_METHOD"><ellipse cx="432" cy="465.6484" fill="#84BE84" rx="3" ry="3" style="stroke:#038048;stroke-width:1;"/></g><text fill="#000000" font-family="sans-serif" font-size="14" lengthAdjust="spacing" textLength="94.7939" x="441" y="468.9951">id : UUID (PK)</text><line style="stroke:#181818;stroke-width:1;" x1="422" x2="628.9912" y1="476.2969" y2="476.2969"/><text fill="#000000" font-family="sans-serif" font-size="14" lengthAdjust="spacing" textLength="67.4092" x="427" y="493.292">name: str</text><text fill="#000000" font-family="sans-serif" font-size="14" lengthAdjust="spacing" textLength="92.2578" x="427" y="509.5889">action: enum</text><text fill="#000000" font-family="sans-serif" font-size="14" lengthAdjust="spacing" textLength="196.9912" x="427" y="525.8857">scenario_id: UUID (FK NULL)</text><text fill="#000000" font-family="sans-serif" font-size="14" lengthAdjust="spacing" textLength="129.6299" x="427" y="542.1826">priority: int (NULL)</text><text fill="#000000" font-family="sans-serif" font-size="14" lengthAdjust="spacing" textLength="142.9395" x="427" y="558.4795">device_id: UUID (FK)</text></g><!--class DeviceBlobData--><g class="entity" data-qualified-name="DeviceBlobData" data-source-line="43" id="ent0007"><rect fill="#F1F1F1" height="129.4844" rx="2.5" ry="2.5" style="stroke:#181818;stroke-width:0.5;" width="171.3867" x="7" y="428.5"/><ellipse cx="34.2102" cy="444.5" fill="#ADD1B2" rx="11" ry="11" style="stroke:#181818;stroke-width:1;"/><path d="M38.3196,450.5 L30.6008,450.5 L30.6008,438.1094 L38.3196,438.1094 L38.3196,440.2656 L33.054,440.2656 L33.054,442.9375 L37.8196,442.9375 L37.8196,445.0938 L33.054,445.0938 L33.054,448.3438 L38.3196,448.3438 L38.3196,450.5 Z " fill="#000000"/><text fill="#000000" font-family="sans-serif" font-size="14" lengthAdjust="spacing" textLength="112.2529" x="50.9236" y="449.3467">DeviceBlobData</text><line style="stroke:#181818;stroke-width:0.5;" x1="8" x2="177.3867" y1="460.5" y2="460.5"/><g data-visibility-modifier="PUBLIC_METHOD"><ellipse cx="18" cy="474.1484" fill="#84BE84" rx="3" ry="3" style="stroke:#038048;stroke-width:1;"/></g><text fill="#000000" font-family="sans-serif" font-size="14" lengthAdjust="spacing" textLength="94.7939" x="27" y="477.4951">id : UUID (PK)</text><line style="stroke:#181818;stroke-width:1;" x1="8" x2="177.3867" y1="484.7969" y2="484.7969"/><text fill="#000000" font-family="sans-serif" font-size="14" lengthAdjust="spacing" textLength="59.5342" x="13" y="501.792">path: str</text><text fill="#000000" font-family="sans-serif" font-size="14" lengthAdjust="spacing" textLength="80.4385" x="13" y="518.0889">type: enum</text><text fill="#000000" font-family="sans-serif" font-size="14" lengthAdjust="spacing" textLength="159.3867" x="13" y="534.3857">created_at: timestamp</text><text fill="#000000" font-family="sans-serif" font-size="14" lengthAdjust="spacing" textLength="142.9395" x="13" y="550.6826">device_id: UUID (FK)</text></g><!--class DeviceReadings--><g class="entity" data-qualified-name="DeviceReadings" data-source-line="52" id="ent0008"><rect fill="#F1F1F1" height="129.4844" rx="2.5" ry="2.5" style="stroke:#181818;stroke-width:0.5;" width="172.2002" x="213.5" y="428.5"/><ellipse cx="240.9071" cy="444.5" fill="#ADD1B2" rx="11" ry="11" style="stroke:#181818;stroke-width:1;"/><path d="M245.0165,450.5 L237.2977,450.5 L237.2977,438.1094 L245.0165,438.1094 L245.0165,440.2656 L239.7508,440.2656 L239.7508,442.9375 L244.5165,442.9375 L244.5165,445.0938 L239.7508,445.0938 L239.7508,448.3438 L245.0165,448.3438 L245.0165,450.5 Z " fill="#000000"/><text fill="#000000" font-family="sans-serif" font-size="14" lengthAdjust="spacing" textLength="112.6289" x="257.6642" y="449.3467">DeviceReadings</text><line style="stroke:#181818;stroke-width:0.5;" x1="214.5" x2="384.7002" y1="460.5" y2="460.5"/><g data-visibility-modifier="PUBLIC_METHOD"><ellipse cx="224.5" cy="474.1484" fill="#84BE84" rx="3" ry="3" style="stroke:#038048;stroke-width:1;"/></g><text fill="#000000" font-family="sans-serif" font-size="14" lengthAdjust="spacing" textLength="94.7939" x="233.5" y="477.4951">id : UUID (PK)</text><line style="stroke:#181818;stroke-width:1;" x1="214.5" x2="384.7002" y1="484.7969" y2="484.7969"/><text fill="#000000" font-family="sans-serif" font-size="14" lengthAdjust="spacing" textLength="160.2002" x="219.5" y="501.792">timestamp: timestamp</text><text fill="#000000" font-family="sans-serif" font-size="14" lengthAdjust="spacing" textLength="119.4922" x="219.5" y="518.0889">metric_name: str</text><text fill="#000000" font-family="sans-serif" font-size="14" lengthAdjust="spacing" textLength="147.2051" x="219.5" y="534.3857">metric_value: double</text><text fill="#000000" font-family="sans-serif" font-size="14" lengthAdjust="spacing" textLength="142.9395" x="219.5" y="550.6826">device_id: UUID (FK)</text></g><!--link User to Scenario--><g class="link" data-entity-1="ent0002" data-entity-2="ent0005" data-link-type="crowfoot" data-source-line="61" id="lnk9"><path codeLine="61" d="M371.1649,130.6682 C400.3349,160.0682 419.5944,179.472 447.5144,207.602" fill="none" id="User-Scenario" style="stroke:#181818;stroke-width:1;"/><line style="stroke:#181818;stroke-width:1;" x1="368.3476" x2="360.6" y1="127.8287" y2="120.02"/><ellipse cx="368.3476" cy="127.8287" fill="none" rx="4" ry="4" style="stroke:#181818;stroke-width:1;"/><line style="stroke:#181818;stroke-width:1;" x1="360.5778" x2="366.2568" y1="125.6768" y2="120.0422"/><line style="stroke:#181818;stroke-width:1;" x1="447.5144" x2="458.828" y1="207.602" y2="213.28"/><line style="stroke:#181818;stroke-width:1;" x1="447.5144" x2="447.472" y1="207.602" y2="213.28"/><line style="stroke:#181818;stroke-width:1;" x1="447.5144" x2="453.15" y1="207.602" y2="213.28"/></g><!--link User to Session--><g class="link" data-entity-1="ent0002" data-entity-2="ent0003" data-link-type="crowfoot" data-source-line="62" id="lnk10"><path codeLine="62" d="M242.9898,125.6128 C212.9198,155.0128 187.8111,179.5581 159.0311,207.6881" fill="none" id="User-Session" style="stroke:#181818;stroke-width:1;"/><line style="stroke:#181818;stroke-width:1;" x1="243.0535" x2="248.6463" y1="119.9563" y2="125.6765"/><line style="stroke:#181818;stroke-width:1;" x1="240.9084" x2="246.5012" y1="122.0536" y2="127.7738"/><line style="stroke:#181818;stroke-width:1;" x1="242.9898" x2="248.71" y1="125.6128" y2="120.02"/><line style="stroke:#181818;stroke-width:1;" x1="159.0311" x2="158.9019" y1="207.6881" y2="213.28"/><line style="stroke:#181818;stroke-width:1;" x1="159.0311" x2="147.7181" y1="207.6881" y2="213.28"/><line style="stroke:#181818;stroke-width:1;" x1="159.0311" x2="153.31" y1="207.6881" y2="213.28"/></g><!--link User to Device--><g class="link" data-entity-1="ent0002" data-entity-2="ent0004" data-link-type="crowfoot" data-source-line="63" id="lnk11"><path codeLine="63" d="M305.5,135.02 C305.5,153.86 305.5,152.3 305.5,172.68" fill="none" id="User-Device" style="stroke:#181818;stroke-width:1;"/><line style="stroke:#181818;stroke-width:1;" x1="305.5" x2="305.5" y1="131.02" y2="120.02"/><ellipse cx="305.5" cy="131.02" fill="none" rx="4" ry="4" style="stroke:#181818;stroke-width:1;"/><line style="stroke:#181818;stroke-width:1;" x1="301.5" x2="309.5" y1="124.02" y2="124.02"/><line style="stroke:#181818;stroke-width:1;" x1="305.5" x2="313.5" y1="172.68" y2="180.68"/><line style="stroke:#181818;stroke-width:1;" x1="305.5" x2="297.5" y1="172.68" y2="180.68"/><line style="stroke:#181818;stroke-width:1;" x1="305.5" x2="305.5" y1="172.68" y2="180.68"/></g><!--link Device to DeviceCommand--><g class="link" data-entity-1="ent0004" data-entity-2="ent0006" data-link-type="crowfoot" data-source-line="65" id="lnk12"><path codeLine="65" d="M392.8404,353.9085 C416.8704,378.9285 427.2964,389.7821 450.7764,414.2121" fill="none" id="Device-DeviceCommand" style="stroke:#181818;stroke-width:1;"/><line style="stroke:#181818;stroke-width:1;" x1="390.0696" x2="382.45" y1="351.0235" y2="343.09"/><ellipse cx="390.0696" cy="351.0235" fill="none" rx="4" ry="4" style="stroke:#181818;stroke-width:1;"/><line style="stroke:#181818;stroke-width:1;" x1="382.3358" x2="388.1057" y1="348.7457" y2="343.2042"/><line style="stroke:#181818;stroke-width:1;" x1="450.7764" x2="462.0879" y1="414.2121" y2="419.98"/><line style="stroke:#181818;stroke-width:1;" x1="450.7764" x2="450.5521" y1="414.2121" y2="419.98"/><line style="stroke:#181818;stroke-width:1;" x1="450.7764" x2="456.32" y1="414.2121" y2="419.98"/></g><!--link Device to DeviceBlobData--><g class="link" data-entity-1="ent0004" data-entity-2="ent0007" data-link-type="crowfoot" data-source-line="66" id="lnk13"><path codeLine="66" d="M220.7848,354.074 C194.8748,381.934 181.8387,395.9524 157.3187,422.3124" fill="none" id="Device-DeviceBlobData" style="stroke:#181818;stroke-width:1;"/><line style="stroke:#181818;stroke-width:1;" x1="223.5088" x2="231" y1="351.145" y2="343.09"/><ellipse cx="223.5088" cy="351.145" fill="none" rx="4" ry="4" style="stroke:#181818;stroke-width:1;"/><line style="stroke:#181818;stroke-width:1;" x1="225.3469" x2="231.205" y1="343.295" y2="348.7431"/><line style="stroke:#181818;stroke-width:1;" x1="157.3187" x2="157.7276" y1="422.3124" y2="428.17"/><line style="stroke:#181818;stroke-width:1;" x1="157.3187" x2="146.0124" y1="422.3124" y2="428.17"/><line style="stroke:#181818;stroke-width:1;" x1="157.3187" x2="151.87" y1="422.3124" y2="428.17"/></g><!--link Device to DeviceReadings--><g class="link" data-entity-1="ent0004" data-entity-2="ent0008" data-link-type="crowfoot" data-source-line="67" id="lnk14"><path codeLine="67" d="M303.0071,358.0849 C302.2771,385.9449 302.0693,393.8127 301.3793,420.1727" fill="none" id="Device-DeviceReadings" style="stroke:#181818;stroke-width:1;"/><line style="stroke:#181818;stroke-width:1;" x1="303.1119" x2="303.4" y1="354.0862" y2="343.09"/><ellipse cx="303.1119" cy="354.0862" fill="none" rx="4" ry="4" style="stroke:#181818;stroke-width:1;"/><line style="stroke:#181818;stroke-width:1;" x1="299.2966" x2="307.2939" y1="346.9839" y2="347.1934"/><line style="stroke:#181818;stroke-width:1;" x1="301.3793" x2="309.1673" y1="420.1727" y2="428.17"/><line style="stroke:#181818;stroke-width:1;" x1="301.3793" x2="293.1727" y1="420.1727" y2="428.17"/><line style="stroke:#181818;stroke-width:1;" x1="301.3793" x2="301.17" y1="420.1727" y2="428.17"/></g><!--link Scenario to DeviceCommand--><g class="link" data-entity-1="ent0005" data-entity-2="ent0006" data-link-type="crowfoot" data-source-line="68" id="lnk15"><path codeLine="68" d="M507.6642,328.6236 C511.1142,360.2136 511.7964,366.4363 515.6864,402.0663" fill="none" id="Scenario-DeviceCommand" style="stroke:#181818;stroke-width:1;"/><line style="stroke:#181818;stroke-width:1;" x1="506.5785" x2="499.7455" y1="318.6827" y2="311.3814"/><line style="stroke:#181818;stroke-width:1;" x1="506.5785" x2="511.6745" y1="318.6827" y2="310.0786"/><line style="stroke:#181818;stroke-width:1;" x1="506.5785" x2="505.71" y1="318.6827" y2="310.73"/><ellipse cx="507.2299" cy="324.6472" fill="none" rx="4" ry="4" style="stroke:#181818;stroke-width:1;"/><line style="stroke:#181818;stroke-width:1;" x1="516.7717" x2="523.6046" y1="412.0073" y2="419.3088"/><line style="stroke:#181818;stroke-width:1;" x1="516.7717" x2="511.6754" y1="412.0073" y2="420.6112"/><line style="stroke:#181818;stroke-width:1;" x1="516.7717" x2="517.64" y1="412.0073" y2="419.96"/><ellipse cx="516.1205" cy="406.0427" fill="none" rx="4" ry="4" style="stroke:#181818;stroke-width:1;"/><text fill="#000000" font-family="sans-serif" font-size="13" lengthAdjust="spacing" textLength="342.1768" x="514.5" y="386.0669">commands order in Scenario stored in junction table</text></g><?plantuml-src bLDDJyCm3BttL-GuXFe7UeGA2J4X1EgvyXApPJH95QU3QTj_9qswVcmJOxsaURQUdvrdr4wwBIi8BTibp7_tKh2C5SLppcPlBtS1IzDmQ52OCN8st521h8Ph3KJVnefo1RIAy259CF9_894q-de9Yedb5svZHYprKqkBeWINCISLaWDLZ-Xpt4YEDpGWzJ80t6YDtBKLfVuq6LkJqI7YjhLFHTseS1L8tCgwpHnQhWo7AU9WIHt9g7cE6gmqjmwuyOzIId7CVVAvXsd7ZqOfqE9MOk1HTTyTTGedrTXhCPz7bjh7h2-RCQaTcmq14MISYPogVAZC8WS7rsNMu5QZOKwVW5i4TsQ2VwjuHn3-sUcwYfxyj8v2xnnUJeVPWHke6eyAqomg_5DLsBMzITDTxumEsmSiRi0uBJQG99tDns3dW4kXuzWlnOx3I7fl7dpKdB3w0V7uHynljjSZzU1cSiRlP0kj6nqSvUtVDf_y0W00?></g></svg>