<?xml version="1.0" encoding="us-ascii" standalone="no"?><svg xmlns="http://www.w3.org/2000/svg" xmlns:xlink="http://www.w3.org/1999/xlink" contentStyleType="text/css" height="558px" preserveAspectRatio="none" style="width:770px;height:558px;background:#FFFFFF;" version="1.1" viewBox="0 0 770 558" width="770px" zoomAndPan="magnify"><defs/><g><!--class User--><g id="elem_User"><rect codeLine="1" fill="#F1F1F1" height="113.9531" id="User" rx="2.5" ry="2.5" style="stroke:#181818;stroke-width:0.5;" width="144" x="202.5" y="7"/><ellipse cx="254.75" cy="23" fill="#ADD1B2" rx="11" ry="11" style="stroke:#181818;stroke-width:1.0;"/><path d="M258.3643,29.5 L250.6445,29.5 L250.6445,17.1069 L258.3643,17.1069 L258.3643,19.2651 L253.0933,19.2651 L253.0933,21.938 L257.8662,21.938 L257.8662,24.0962 L253.0933,24.0962 L253.0933,27.3418 L258.3643,27.3418 Z " fill="#000000"/><text fill="#000000" font-family="sans-serif" font-size="14" lengthAdjust="spacing" textLength="31" x="275.25" y="28.291">User</text><line style="stroke:#181818;stroke-width:0.5;" x1="203.5" x2="345.5" y1="39" y2="39"/><ellipse cx="213.5" cy="52.7441" fill="#84BE84" rx="3" ry="3" style="stroke:#038048;stroke-width:1.0;"/><text fill="#000000" font-family="sans-serif" font-size="14" lengthAdjust="spacing" textLength="90" x="222.5" y="56.5352">id : UUID (PK)</text><line style="stroke:#181818;stroke-width:1.0;" x1="203.5" x2="345.5" y1="63.4883" y2="63.4883"/><text fill="#000000" font-family="sans-serif" font-size="14" lengthAdjust="spacing" textLength="64" x="208.5" y="81.0234">name: str</text><text fill="#000000" font-family="sans-serif" font-size="14" lengthAdjust="spacing" textLength="63" x="208.5" y="97.5117">email: str</text><text fill="#000000" font-family="sans-serif" font-size="14" lengthAdjust="spacing" textLength="132" x="208.5" y="114">password_hash: str</text></g><!--class Session--><g id="elem_Session"><rect codeLine="9" fill="#F1F1F1" height="97.4648" id="Session" rx="2.5" ry="2.5" style="stroke:#181818;stroke-width:0.5;" width="165" x="7" y="213.93"/><ellipse cx="59.25" cy="229.93" fill="#ADD1B2" rx="11" ry="11" style="stroke:#181818;stroke-width:1.0;"/><path d="M62.8643,236.43 L55.1445,236.43 L55.1445,224.0369 L62.8643,224.0369 L62.8643,226.1951 L57.5933,226.1951 L57.5933,228.868 L62.3662,228.868 L62.3662,231.0262 L57.5933,231.0262 L57.5933,234.2718 L62.8643,234.2718 Z " fill="#000000"/><text fill="#000000" font-family="sans-serif" font-size="14" lengthAdjust="spacing" textLength="52" x="79.75" y="235.221">Session</text><line style="stroke:#181818;stroke-width:0.5;" x1="8" x2="171" y1="245.93" y2="245.93"/><ellipse cx="18" cy="259.6741" fill="#84BE84" rx="3" ry="3" style="stroke:#038048;stroke-width:1.0;"/><text fill="#000000" font-family="sans-serif" font-size="14" lengthAdjust="spacing" textLength="90" x="27" y="263.4652">id : UUID (PK)</text><line style="stroke:#181818;stroke-width:1.0;" x1="8" x2="171" y1="270.4183" y2="270.4183"/><text fill="#000000" font-family="sans-serif" font-size="14" lengthAdjust="spacing" textLength="123" x="13" y="287.9534">session_key: UUID</text><text fill="#000000" font-family="sans-serif" font-size="14" lengthAdjust="spacing" textLength="153" x="13" y="304.4417">expired_at: timestamp</text></g><!--class Device--><g id="elem_Device"><rect codeLine="16" fill="#F1F1F1" height="163.418" id="Device" rx="2.5" ry="2.5" style="stroke:#181818;stroke-width:0.5;" width="159" x="394" y="180.95"/><ellipse cx="447.25" cy="196.95" fill="#ADD1B2" rx="11" ry="11" style="stroke:#181818;stroke-width:1.0;"/><path d="M450.8643,203.45 L443.1445,203.45 L443.1445,191.0569 L450.8643,191.0569 L450.8643,193.2151 L445.5933,193.2151 L445.5933,195.888 L450.3662,195.888 L450.3662,198.0462 L445.5933,198.0462 L445.5933,201.2918 L450.8643,201.2918 Z " fill="#000000"/><text fill="#000000" font-family="sans-serif" font-size="14" lengthAdjust="spacing" textLength="44" x="467.75" y="202.241">Device</text><line style="stroke:#181818;stroke-width:0.5;" x1="395" x2="552" y1="212.95" y2="212.95"/><ellipse cx="405" cy="226.6941" fill="#84BE84" rx="3" ry="3" style="stroke:#038048;stroke-width:1.0;"/><text fill="#000000" font-family="sans-serif" font-size="14" lengthAdjust="spacing" textLength="90" x="414" y="230.4852">id : UUID (PK)</text><line style="stroke:#181818;stroke-width:1.0;" x1="395" x2="552" y1="237.4383" y2="237.4383"/><text fill="#000000" font-family="sans-serif" font-size="14" lengthAdjust="spacing" textLength="86" x="400" y="254.9734">name: string</text><text fill="#000000" font-family="sans-serif" font-size="14" lengthAdjust="spacing" textLength="147" x="400" y="271.4617">connection_info: json</text><text fill="#000000" font-family="sans-serif" font-size="14" lengthAdjust="spacing" textLength="76" x="400" y="287.95">type: enum</text><text fill="#000000" font-family="sans-serif" font-size="14" lengthAdjust="spacing" textLength="103" x="400" y="304.4383">description: str</text><text fill="#000000" font-family="sans-serif" font-size="14" lengthAdjust="spacing" textLength="81" x="400" y="320.9266">location: str</text><text fill="#000000" font-family="sans-serif" font-size="14" lengthAdjust="spacing" textLength="66" x="400" y="337.4148">tags: json</text></g><!--class Scenario--><g id="elem_Scenario"><rect codeLine="27" fill="#F1F1F1" height="97.4648" id="Scenario" rx="2.5" ry="2.5" style="stroke:#181818;stroke-width:0.5;" width="135" x="207" y="213.93"/><ellipse cx="241.8" cy="229.93" fill="#ADD1B2" rx="11" ry="11" style="stroke:#181818;stroke-width:1.0;"/><path d="M245.4143,236.43 L237.6945,236.43 L237.6945,224.0369 L245.4143,224.0369 L245.4143,226.1951 L240.1433,226.1951 L240.1433,228.868 L244.9162,228.868 L244.9162,231.0262 L240.1433,231.0262 L240.1433,234.2718 L245.4143,234.2718 Z " fill="#000000"/><text fill="#000000" font-family="sans-serif" font-size="14" lengthAdjust="spacing" textLength="59" x="260.2" y="235.221">Scenario</text><line style="stroke:#181818;stroke-width:0.5;" x1="208" x2="341" y1="245.93" y2="245.93"/><ellipse cx="218" cy="259.6741" fill="#84BE84" rx="3" ry="3" style="stroke:#038048;stroke-width:1.0;"/><text fill="#000000" font-family="sans-serif" font-size="14" lengthAdjust="spacing" textLength="90" x="227" y="263.4652">id : UUID (PK)</text><line style="stroke:#181818;stroke-width:1.0;" x1="208" x2="341" y1="270.4183" y2="270.4183"/><text fill="#000000" font-family="sans-serif" font-size="14" lengthAdjust="spacing" textLength="64" x="213" y="287.9534">name: str</text><text fill="#000000" font-family="sans-serif" font-size="14" lengthAdjust="spacing" textLength="123" x="213" y="304.4417">user_id: UUID (FK)</text></g><!--class DeviceCommand--><g id="elem_DeviceCommand"><rect codeLine="33" fill="#F1F1F1" height="146.9297" id="DeviceCommand" rx="2.5" ry="2.5" style="stroke:#181818;stroke-width:0.5;" width="201" x="165" y="404.37"/><ellipse cx="204.3" cy="420.37" fill="#ADD1B2" rx="11" ry="11" style="stroke:#181818;stroke-width:1.0;"/><path d="M207.9143,426.87 L200.1945,426.87 L200.1945,414.4769 L207.9143,414.4769 L207.9143,416.6351 L202.6433,416.6351 L202.6433,419.308 L207.4162,419.308 L207.4162,421.4662 L202.6433,421.4662 L202.6433,424.7118 L207.9143,424.7118 Z " fill="#000000"/><text fill="#000000" font-family="sans-serif" font-size="14" lengthAdjust="spacing" textLength="115" x="223.7" y="425.661">DeviceCommand</text><line style="stroke:#181818;stroke-width:0.5;" x1="166" x2="365" y1="436.37" y2="436.37"/><ellipse cx="176" cy="450.1141" fill="#84BE84" rx="3" ry="3" style="stroke:#038048;stroke-width:1.0;"/><text fill="#000000" font-family="sans-serif" font-size="14" lengthAdjust="spacing" textLength="90" x="185" y="453.9052">id : UUID (PK)</text><line style="stroke:#181818;stroke-width:1.0;" x1="166" x2="365" y1="460.8583" y2="460.8583"/><text fill="#000000" font-family="sans-serif" font-size="14" lengthAdjust="spacing" textLength="64" x="171" y="478.3934">name: str</text><text fill="#000000" font-family="sans-serif" font-size="14" lengthAdjust="spacing" textLength="89" x="171" y="494.8817">action: enum</text><text fill="#000000" font-family="sans-serif" font-size="14" lengthAdjust="spacing" textLength="189" x="171" y="511.37">scenario_id: UUID (FK NULL)</text><text fill="#000000" font-family="sans-serif" font-size="14" lengthAdjust="spacing" textLength="124" x="171" y="527.8583">priority: int (NULL)</text><text fill="#000000" font-family="sans-serif" font-size="14" lengthAdjust="spacing" textLength="136" x="171" y="544.3466">device_id: UUID (FK)</text></g><!--class DeviceBlobData--><g id="elem_DeviceBlobData"><rect codeLine="43" fill="#F1F1F1" height="130.4414" id="DeviceBlobData" rx="2.5" ry="2.5" style="stroke:#181818;stroke-width:0.5;" width="163" x="401" y="412.61"/><ellipse cx="427.7" cy="428.61" fill="#ADD1B2" rx="11" ry="11" style="stroke:#181818;stroke-width:1.0;"/><path d="M431.3143,435.11 L423.5945,435.11 L423.5945,422.7169 L431.3143,422.7169 L431.3143,424.8751 L426.0433,424.8751 L426.0433,427.548 L430.8162,427.548 L430.8162,429.7062 L426.0433,429.7062 L426.0433,432.9518 L431.3143,432.9518 Z " fill="#000000"/><text fill="#000000" font-family="sans-serif" font-size="14" lengthAdjust="spacing" textLength="105" x="444.3" y="433.901">DeviceBlobData</text><line style="stroke:#181818;stroke-width:0.5;" x1="402" x2="563" y1="444.61" y2="444.61"/><ellipse cx="412" cy="458.3541" fill="#84BE84" rx="3" ry="3" style="stroke:#038048;stroke-width:1.0;"/><text fill="#000000" font-family="sans-serif" font-size="14" lengthAdjust="spacing" textLength="90" x="421" y="462.1452">id : UUID (PK)</text><line style="stroke:#181818;stroke-width:1.0;" x1="402" x2="563" y1="469.0983" y2="469.0983"/><text fill="#000000" font-family="sans-serif" font-size="14" lengthAdjust="spacing" textLength="57" x="407" y="486.6334">path: str</text><text fill="#000000" font-family="sans-serif" font-size="14" lengthAdjust="spacing" textLength="76" x="407" y="503.1217">type: enum</text><text fill="#000000" font-family="sans-serif" font-size="14" lengthAdjust="spacing" textLength="151" x="407" y="519.61">created_at: timestamp</text><text fill="#000000" font-family="sans-serif" font-size="14" lengthAdjust="spacing" textLength="136" x="407" y="536.0983">device_id: UUID (FK)</text></g><!--class DeviceReadings--><g id="elem_DeviceReadings"><rect codeLine="52" fill="#F1F1F1" height="130.4414" id="DeviceReadings" rx="2.5" ry="2.5" style="stroke:#181818;stroke-width:0.5;" width="164" x="599.5" y="412.61"/><ellipse cx="625.75" cy="428.61" fill="#ADD1B2" rx="11" ry="11" style="stroke:#181818;stroke-width:1.0;"/><path d="M629.3643,435.11 L621.6445,435.11 L621.6445,422.7169 L629.3643,422.7169 L629.3643,424.8751 L624.0933,424.8751 L624.0933,427.548 L628.8662,427.548 L628.8662,429.7062 L624.0933,429.7062 L624.0933,432.9518 L629.3643,432.9518 Z " fill="#000000"/><text fill="#000000" font-family="sans-serif" font-size="14" lengthAdjust="spacing" textLength="107" x="642.25" y="433.901">DeviceReadings</text><line style="stroke:#181818;stroke-width:0.5;" x1="600.5" x2="762.5" y1="444.61" y2="444.61"/><ellipse cx="610.5" cy="458.3541" fill="#84BE84" rx="3" ry="3" style="stroke:#038048;stroke-width:1.0;"/><text fill="#000000" font-family="sans-serif" font-size="14" lengthAdjust="spacing" textLength="90" x="619.5" y="462.1452">id : UUID (PK)</text><line style="stroke:#181818;stroke-width:1.0;" x1="600.5" x2="762.5" y1="469.0983" y2="469.0983"/><text fill="#000000" font-family="sans-serif" font-size="14" lengthAdjust="spacing" textLength="152" x="605.5" y="486.6334">timestamp: timestamp</text><text fill="#000000" font-family="sans-serif" font-size="14" lengthAdjust="spacing" textLength="114" x="605.5" y="503.1217">metric_name: str</text><text fill="#000000" font-family="sans-serif" font-size="14" lengthAdjust="spacing" textLength="142" x="605.5" y="519.61">metric_value: double</text><text fill="#000000" font-family="sans-serif" font-size="14" lengthAdjust="spacing" textLength="136" x="605.5" y="536.0983">device_id: UUID (FK)</text></g><!--link User to Scenario--><g id="link_User_Scenario"><path codeLine="61" d="M274.5,136.34 C274.5,165.51 274.5,177.75 274.5,205.62 " fill="none" id="User-Scenario" style="stroke:#181818;stroke-width:1.0;"/><line style="stroke:#181818;stroke-width:1.0;" x1="274.5" x2="274.5" y1="132.34" y2="121.34"/><ellipse cx="274.5" cy="132.34" fill="none" rx="4" ry="4" style="stroke:#181818;stroke-width:1.0;"/><line style="stroke:#181818;stroke-width:1.0;" x1="270.5" x2="278.5" y1="125.34" y2="125.34"/><line style="stroke:#181818;stroke-width:1.0;" x1="274.5" x2="282.5" y1="205.62" y2="213.62"/><line style="stroke:#181818;stroke-width:1.0;" x1="274.5" x2="266.5" y1="205.62" y2="213.62"/><line style="stroke:#181818;stroke-width:1.0;" x1="274.5" x2="274.5" y1="205.62" y2="213.62"/></g><!--link User to Session--><g id="link_User_Session"><path codeLine="62" d="M216.0086,127.167 C188.5686,156.337 166.3806,179.9223 140.1706,207.7923 " fill="none" id="User-Session" style="stroke:#181818;stroke-width:1.0;"/><line style="stroke:#181818;stroke-width:1.0;" x1="215.8358" x2="221.6628" y1="121.5128" y2="126.9942"/><line style="stroke:#181818;stroke-width:1.0;" x1="213.7803" x2="219.6073" y1="123.6979" y2="129.1793"/><line style="stroke:#181818;stroke-width:1.0;" x1="216.0086" x2="221.49" y1="127.167" y2="121.34"/><line style="stroke:#181818;stroke-width:1.0;" x1="140.1706" x2="140.5177" y1="207.7923" y2="213.62"/><line style="stroke:#181818;stroke-width:1.0;" x1="140.1706" x2="128.8623" y1="207.7923" y2="213.62"/><line style="stroke:#181818;stroke-width:1.0;" x1="140.1706" x2="134.69" y1="207.7923" y2="213.62"/></g><!--link User to Device--><g id="link_User_Device"><path codeLine="63" d="M342.1996,131.8832 C361.6096,151.0632 367.3105,156.706 388.1605,177.316 " fill="none" id="User-Device" style="stroke:#181818;stroke-width:1.0;"/><line style="stroke:#181818;stroke-width:1.0;" x1="339.3544" x2="331.53" y1="129.0717" y2="121.34"/><ellipse cx="339.3544" cy="129.0717" fill="none" rx="4" ry="4" style="stroke:#181818;stroke-width:1.0;"/><line style="stroke:#181818;stroke-width:1.0;" x1="331.5637" x2="337.1868" y1="126.9968" y2="121.3063"/><line style="stroke:#181818;stroke-width:1.0;" x1="388.1605" x2="393.85" y1="177.316" y2="177.2505"/><line style="stroke:#181818;stroke-width:1.0;" x1="388.1605" x2="393.85" y1="177.316" y2="188.6295"/><line style="stroke:#181818;stroke-width:1.0;" x1="388.1605" x2="393.85" y1="177.316" y2="182.94"/></g><!--link Device to DeviceCommand--><g id="link_Device_DeviceCommand"><path codeLine="65" d="M383.7969,355.5985 C364.8569,375.0185 360.8057,379.1528 342.2557,398.1728 " fill="none" id="Device-DeviceCommand" style="stroke:#181818;stroke-width:1.0;"/><line style="stroke:#181818;stroke-width:1.0;" x1="386.5898" x2="394.27" y1="352.7349" y2="344.86"/><ellipse cx="386.5898" cy="352.7349" fill="none" rx="4" ry="4" style="stroke:#181818;stroke-width:1.0;"/><line style="stroke:#181818;stroke-width:1.0;" x1="388.6136" x2="394.3408" y1="344.9308" y2="350.5164"/><line style="stroke:#181818;stroke-width:1.0;" x1="342.2557" x2="342.3972" y1="398.1728" y2="403.9"/><line style="stroke:#181818;stroke-width:1.0;" x1="342.2557" x2="330.9428" y1="398.1728" y2="403.9"/><line style="stroke:#181818;stroke-width:1.0;" x1="342.2557" x2="336.67" y1="398.1728" y2="403.9"/></g><!--link Device to DeviceBlobData--><g id="link_Device_DeviceBlobData"><path codeLine="66" d="M477.56,359.8468 C478.5,382.2068 478.5418,383.1572 479.4418,404.4272 " fill="none" id="Device-DeviceBlobData" style="stroke:#181818;stroke-width:1.0;"/><line style="stroke:#181818;stroke-width:1.0;" x1="477.392" x2="476.93" y1="355.8503" y2="344.86"/><ellipse cx="477.392" cy="355.8503" fill="none" rx="4" ry="4" style="stroke:#181818;stroke-width:1.0;"/><line style="stroke:#181818;stroke-width:1.0;" x1="473.1015" x2="481.0945" y1="349.0245" y2="348.6885"/><line style="stroke:#181818;stroke-width:1.0;" x1="479.4418" x2="487.7728" y1="404.4272" y2="412.42"/><line style="stroke:#181818;stroke-width:1.0;" x1="479.4418" x2="471.7872" y1="404.4272" y2="412.42"/><line style="stroke:#181818;stroke-width:1.0;" x1="479.4418" x2="479.78" y1="404.4272" y2="412.42"/></g><!--link Device to DeviceReadings--><g id="link_Device_DeviceReadings"><path codeLine="67" d="M563.2037,355.5978 C585.0137,377.9578 592.3136,385.4236 613.0636,406.6936 " fill="none" id="Device-DeviceReadings" style="stroke:#181818;stroke-width:1.0;"/><line style="stroke:#181818;stroke-width:1.0;" x1="560.4107" x2="552.73" y1="352.7344" y2="344.86"/><ellipse cx="560.4107" cy="352.7344" fill="none" rx="4" ry="4" style="stroke:#181818;stroke-width:1.0;"/><line style="stroke:#181818;stroke-width:1.0;" x1="552.6596" x2="558.3864" y1="350.5164" y2="344.9304"/><line style="stroke:#181818;stroke-width:1.0;" x1="613.0636" x2="624.3764" y1="406.6936" y2="412.42"/><line style="stroke:#181818;stroke-width:1.0;" x1="613.0636" x2="612.9236" y1="406.6936" y2="412.42"/><line style="stroke:#181818;stroke-width:1.0;" x1="613.0636" x2="618.65" y1="406.6936" y2="412.42"/></g><!--link Scenario to DeviceCommand--><g id="link_Scenario_DeviceCommand"><path codeLine="68" d="M271.8378,326.7567 C270.6878,354.0167 270.6204,355.6961 269.3304,386.2061 " fill="none" id="Scenario-DeviceCommand" style="stroke:#181818;stroke-width:1.0;"/><line style="stroke:#181818;stroke-width:1.0;" x1="272.0064" x2="272.47" y1="322.7602" y2="311.77"/><ellipse cx="272.0064" cy="322.7602" fill="none" rx="4" ry="4" style="stroke:#181818;stroke-width:1.0;"/><line style="stroke:#181818;stroke-width:1.0;" x1="268.305" x2="276.2978" y1="315.5978" y2="315.935"/><line style="stroke:#181818;stroke-width:1.0;" x1="268.9079" x2="274.5646" y1="396.1971" y2="404.4435"/><line style="stroke:#181818;stroke-width:1.0;" x1="268.9079" x2="262.5754" y1="396.1971" y2="403.9365"/><line style="stroke:#181818;stroke-width:1.0;" x1="268.9079" x2="268.57" y1="396.1971" y2="404.19"/><ellipse cx="269.1614" cy="390.2025" fill="none" rx="4" ry="4" style="stroke:#181818;stroke-width:1.0;"/></g><!--SRC=[bLFBJiCm4BpxAtm4eVn0Zb0X8Ig4G3b7Mtjf3V53NgTGjVrtN3jDaxQYD9TePqUpim-Z2IgiU4Ne-Phn-DqfoKjULKyJVlFwV9kmeaW_0nfBJi6d23MevX0w8FgsNjOBe4M6junXrdz78cNDvHAKYVKNhZ8Zb_fnogEi8PGyA8qKGBk1_0INIk0L3IWpJu2mng08kuhAVDYIVv8rAHDMBbBHj3g54abuvNRCGykD5J160iof4naqBz20L_RQ0RTnARMIU-vZv6x77JzOhS78QuL1PDTzTzGv75NZBzLqcbLSpFbOjkJA17vpICXauyJasELzOsSJ273PfeEm60npl0BX4SB94VpRnHk2Z6kdoovwyUCw6kFbY7eyp0vSGjD6LDfsrk2Vhj9RszYYMFUNqM6RXEKNCAJb1XZhpdm8TXTmBhKV-xdSVXYilyrTrXwhiby0]--></g></svg>