<?xml version="1.0" encoding="us-ascii" standalone="no"?><svg xmlns="http://www.w3.org/2000/svg" xmlns:xlink="http://www.w3.org/1999/xlink" contentStyleType="text/css" height="576px" preserveAspectRatio="none" style="width:834px;height:576px;background:#FFFFFF;" version="1.1" viewBox="0 0 834 576" width="834px" zoomAndPan="magnify"><defs/><g><!--class User--><g id="elem_User"><rect codeLine="1" fill="#F1F1F1" height="113.9531" id="User" rx="2.5" ry="2.5" style="stroke:#181818;stroke-width:0.5;" width="144" x="220.5" y="7"/><ellipse cx="272.75" cy="23" fill="#ADD1B2" rx="11" ry="11" style="stroke:#181818;stroke-width:1.0;"/><path d="M276.3643,29.5 L268.6445,29.5 L268.6445,17.1069 L276.3643,17.1069 L276.3643,19.2651 L271.0933,19.2651 L271.0933,21.938 L275.8662,21.938 L275.8662,24.0962 L271.0933,24.0962 L271.0933,27.3418 L276.3643,27.3418 Z " fill="#000000"/><text fill="#000000" font-family="sans-serif" font-size="14" lengthAdjust="spacing" textLength="31" x="293.25" y="28.291">User</text><line style="stroke:#181818;stroke-width:0.5;" x1="221.5" x2="363.5" y1="39" y2="39"/><ellipse cx="231.5" cy="52.7441" fill="#84BE84" rx="3" ry="3" style="stroke:#038048;stroke-width:1.0;"/><text fill="#000000" font-family="sans-serif" font-size="14" lengthAdjust="spacing" textLength="90" x="240.5" y="56.5352">id : UUID (PK)</text><line style="stroke:#181818;stroke-width:1.0;" x1="221.5" x2="363.5" y1="63.4883" y2="63.4883"/><text fill="#000000" font-family="sans-serif" font-size="14" lengthAdjust="spacing" textLength="64" x="226.5" y="81.0234">name: str</text><text fill="#000000" font-family="sans-serif" font-size="14" lengthAdjust="spacing" textLength="63" x="226.5" y="97.5117">email: str</text><text fill="#000000" font-family="sans-serif" font-size="14" lengthAdjust="spacing" textLength="132" x="226.5" y="114">password_hash: str</text></g><!--class Session--><g id="elem_Session"><rect codeLine="9" fill="#F1F1F1" height="97.4648" id="Session" rx="2.5" ry="2.5" style="stroke:#181818;stroke-width:0.5;" width="165" x="13" y="214.93"/><ellipse cx="65.25" cy="230.93" fill="#ADD1B2" rx="11" ry="11" style="stroke:#181818;stroke-width:1.0;"/><path d="M68.8643,237.43 L61.1445,237.43 L61.1445,225.0369 L68.8643,225.0369 L68.8643,227.1951 L63.5933,227.1951 L63.5933,229.868 L68.3662,229.868 L68.3662,232.0262 L63.5933,232.0262 L63.5933,235.2718 L68.8643,235.2718 Z " fill="#000000"/><text fill="#000000" font-family="sans-serif" font-size="14" lengthAdjust="spacing" textLength="52" x="85.75" y="236.221">Session</text><line style="stroke:#181818;stroke-width:0.5;" x1="14" x2="177" y1="246.93" y2="246.93"/><ellipse cx="24" cy="260.6741" fill="#84BE84" rx="3" ry="3" style="stroke:#038048;stroke-width:1.0;"/><text fill="#000000" font-family="sans-serif" font-size="14" lengthAdjust="spacing" textLength="90" x="33" y="264.4652">id : UUID (PK)</text><line style="stroke:#181818;stroke-width:1.0;" x1="14" x2="177" y1="271.4183" y2="271.4183"/><text fill="#000000" font-family="sans-serif" font-size="14" lengthAdjust="spacing" textLength="123" x="19" y="288.9534">session_key: UUID</text><text fill="#000000" font-family="sans-serif" font-size="14" lengthAdjust="spacing" textLength="153" x="19" y="305.4417">expired_at: timestamp</text></g><!--class Device--><g id="elem_Device"><rect codeLine="16" fill="#F1F1F1" height="163.418" id="Device" rx="2.5" ry="2.5" style="stroke:#181818;stroke-width:0.5;" width="159" x="213" y="181.95"/><ellipse cx="266.25" cy="197.95" fill="#ADD1B2" rx="11" ry="11" style="stroke:#181818;stroke-width:1.0;"/><path d="M269.8643,204.45 L262.1445,204.45 L262.1445,192.0569 L269.8643,192.0569 L269.8643,194.2151 L264.5933,194.2151 L264.5933,196.888 L269.3662,196.888 L269.3662,199.0462 L264.5933,199.0462 L264.5933,202.2918 L269.8643,202.2918 Z " fill="#000000"/><text fill="#000000" font-family="sans-serif" font-size="14" lengthAdjust="spacing" textLength="44" x="286.75" y="203.241">Device</text><line style="stroke:#181818;stroke-width:0.5;" x1="214" x2="371" y1="213.95" y2="213.95"/><ellipse cx="224" cy="227.6941" fill="#84BE84" rx="3" ry="3" style="stroke:#038048;stroke-width:1.0;"/><text fill="#000000" font-family="sans-serif" font-size="14" lengthAdjust="spacing" textLength="90" x="233" y="231.4852">id : UUID (PK)</text><line style="stroke:#181818;stroke-width:1.0;" x1="214" x2="371" y1="238.4383" y2="238.4383"/><text fill="#000000" font-family="sans-serif" font-size="14" lengthAdjust="spacing" textLength="86" x="219" y="255.9734">name: string</text><text fill="#000000" font-family="sans-serif" font-size="14" lengthAdjust="spacing" textLength="147" x="219" y="272.4617">connection_info: json</text><text fill="#000000" font-family="sans-serif" font-size="14" lengthAdjust="spacing" textLength="76" x="219" y="288.95">type: enum</text><text fill="#000000" font-family="sans-serif" font-size="14" lengthAdjust="spacing" textLength="103" x="219" y="305.4383">description: str</text><text fill="#000000" font-family="sans-serif" font-size="14" lengthAdjust="spacing" textLength="81" x="219" y="321.9266">location: str</text><text fill="#000000" font-family="sans-serif" font-size="14" lengthAdjust="spacing" textLength="66" x="219" y="338.4148">tags: json</text></g><!--class Scenario--><g id="elem_Scenario"><rect codeLine="27" fill="#F1F1F1" height="97.4648" id="Scenario" rx="2.5" ry="2.5" style="stroke:#181818;stroke-width:0.5;" width="135" x="416" y="214.93"/><ellipse cx="450.8" cy="230.93" fill="#ADD1B2" rx="11" ry="11" style="stroke:#181818;stroke-width:1.0;"/><path d="M454.4143,237.43 L446.6945,237.43 L446.6945,225.0369 L454.4143,225.0369 L454.4143,227.1951 L449.1433,227.1951 L449.1433,229.868 L453.9162,229.868 L453.9162,232.0262 L449.1433,232.0262 L449.1433,235.2718 L454.4143,235.2718 Z " fill="#000000"/><text fill="#000000" font-family="sans-serif" font-size="14" lengthAdjust="spacing" textLength="59" x="469.2" y="236.221">Scenario</text><line style="stroke:#181818;stroke-width:0.5;" x1="417" x2="550" y1="246.93" y2="246.93"/><ellipse cx="427" cy="260.6741" fill="#84BE84" rx="3" ry="3" style="stroke:#038048;stroke-width:1.0;"/><text fill="#000000" font-family="sans-serif" font-size="14" lengthAdjust="spacing" textLength="90" x="436" y="264.4652">id : UUID (PK)</text><line style="stroke:#181818;stroke-width:1.0;" x1="417" x2="550" y1="271.4183" y2="271.4183"/><text fill="#000000" font-family="sans-serif" font-size="14" lengthAdjust="spacing" textLength="64" x="422" y="288.9534">name: str</text><text fill="#000000" font-family="sans-serif" font-size="14" lengthAdjust="spacing" textLength="123" x="422" y="305.4417">user_id: UUID (FK)</text></g><!--class DeviceCommand--><g id="elem_DeviceCommand"><rect codeLine="33" fill="#F1F1F1" height="146.9297" id="DeviceCommand" rx="2.5" ry="2.5" style="stroke:#181818;stroke-width:0.5;" width="201" x="405" y="422.37"/><ellipse cx="444.3" cy="438.37" fill="#ADD1B2" rx="11" ry="11" style="stroke:#181818;stroke-width:1.0;"/><path d="M447.9143,444.87 L440.1945,444.87 L440.1945,432.4769 L447.9143,432.4769 L447.9143,434.6351 L442.6433,434.6351 L442.6433,437.308 L447.4162,437.308 L447.4162,439.4662 L442.6433,439.4662 L442.6433,442.7118 L447.9143,442.7118 Z " fill="#000000"/><text fill="#000000" font-family="sans-serif" font-size="14" lengthAdjust="spacing" textLength="115" x="463.7" y="443.661">DeviceCommand</text><line style="stroke:#181818;stroke-width:0.5;" x1="406" x2="605" y1="454.37" y2="454.37"/><ellipse cx="416" cy="468.1141" fill="#84BE84" rx="3" ry="3" style="stroke:#038048;stroke-width:1.0;"/><text fill="#000000" font-family="sans-serif" font-size="14" lengthAdjust="spacing" textLength="90" x="425" y="471.9052">id : UUID (PK)</text><line style="stroke:#181818;stroke-width:1.0;" x1="406" x2="605" y1="478.8583" y2="478.8583"/><text fill="#000000" font-family="sans-serif" font-size="14" lengthAdjust="spacing" textLength="64" x="411" y="496.3934">name: str</text><text fill="#000000" font-family="sans-serif" font-size="14" lengthAdjust="spacing" textLength="89" x="411" y="512.8817">action: enum</text><text fill="#000000" font-family="sans-serif" font-size="14" lengthAdjust="spacing" textLength="189" x="411" y="529.37">scenario_id: UUID (FK NULL)</text><text fill="#000000" font-family="sans-serif" font-size="14" lengthAdjust="spacing" textLength="124" x="411" y="545.8583">priority: int (NULL)</text><text fill="#000000" font-family="sans-serif" font-size="14" lengthAdjust="spacing" textLength="136" x="411" y="562.3466">device_id: UUID (FK)</text></g><!--class DeviceBlobData--><g id="elem_DeviceBlobData"><rect codeLine="43" fill="#F1F1F1" height="130.4414" id="DeviceBlobData" rx="2.5" ry="2.5" style="stroke:#181818;stroke-width:0.5;" width="163" x="7" y="430.61"/><ellipse cx="33.7" cy="446.61" fill="#ADD1B2" rx="11" ry="11" style="stroke:#181818;stroke-width:1.0;"/><path d="M37.3143,453.11 L29.5945,453.11 L29.5945,440.7169 L37.3143,440.7169 L37.3143,442.8751 L32.0433,442.8751 L32.0433,445.548 L36.8162,445.548 L36.8162,447.7062 L32.0433,447.7062 L32.0433,450.9518 L37.3143,450.9518 Z " fill="#000000"/><text fill="#000000" font-family="sans-serif" font-size="14" lengthAdjust="spacing" textLength="105" x="50.3" y="451.901">DeviceBlobData</text><line style="stroke:#181818;stroke-width:0.5;" x1="8" x2="169" y1="462.61" y2="462.61"/><ellipse cx="18" cy="476.3541" fill="#84BE84" rx="3" ry="3" style="stroke:#038048;stroke-width:1.0;"/><text fill="#000000" font-family="sans-serif" font-size="14" lengthAdjust="spacing" textLength="90" x="27" y="480.1452">id : UUID (PK)</text><line style="stroke:#181818;stroke-width:1.0;" x1="8" x2="169" y1="487.0983" y2="487.0983"/><text fill="#000000" font-family="sans-serif" font-size="14" lengthAdjust="spacing" textLength="57" x="13" y="504.6334">path: str</text><text fill="#000000" font-family="sans-serif" font-size="14" lengthAdjust="spacing" textLength="76" x="13" y="521.1217">type: enum</text><text fill="#000000" font-family="sans-serif" font-size="14" lengthAdjust="spacing" textLength="151" x="13" y="537.61">created_at: timestamp</text><text fill="#000000" font-family="sans-serif" font-size="14" lengthAdjust="spacing" textLength="136" x="13" y="554.0983">device_id: UUID (FK)</text></g><!--class DeviceReadings--><g id="elem_DeviceReadings"><rect codeLine="52" fill="#F1F1F1" height="130.4414" id="DeviceReadings" rx="2.5" ry="2.5" style="stroke:#181818;stroke-width:0.5;" width="164" x="205.5" y="430.61"/><ellipse cx="231.75" cy="446.61" fill="#ADD1B2" rx="11" ry="11" style="stroke:#181818;stroke-width:1.0;"/><path d="M235.3643,453.11 L227.6445,453.11 L227.6445,440.7169 L235.3643,440.7169 L235.3643,442.8751 L230.0933,442.8751 L230.0933,445.548 L234.8662,445.548 L234.8662,447.7062 L230.0933,447.7062 L230.0933,450.9518 L235.3643,450.9518 Z " fill="#000000"/><text fill="#000000" font-family="sans-serif" font-size="14" lengthAdjust="spacing" textLength="107" x="248.25" y="451.901">DeviceReadings</text><line style="stroke:#181818;stroke-width:0.5;" x1="206.5" x2="368.5" y1="462.61" y2="462.61"/><ellipse cx="216.5" cy="476.3541" fill="#84BE84" rx="3" ry="3" style="stroke:#038048;stroke-width:1.0;"/><text fill="#000000" font-family="sans-serif" font-size="14" lengthAdjust="spacing" textLength="90" x="225.5" y="480.1452">id : UUID (PK)</text><line style="stroke:#181818;stroke-width:1.0;" x1="206.5" x2="368.5" y1="487.0983" y2="487.0983"/><text fill="#000000" font-family="sans-serif" font-size="14" lengthAdjust="spacing" textLength="152" x="211.5" y="504.6334">timestamp: timestamp</text><text fill="#000000" font-family="sans-serif" font-size="14" lengthAdjust="spacing" textLength="114" x="211.5" y="521.1217">metric_name: str</text><text fill="#000000" font-family="sans-serif" font-size="14" lengthAdjust="spacing" textLength="142" x="211.5" y="537.61">metric_value: double</text><text fill="#000000" font-family="sans-serif" font-size="14" lengthAdjust="spacing" textLength="136" x="211.5" y="554.0983">device_id: UUID (FK)</text></g><!--link User to Scenario--><g id="link_User_Scenario"><path codeLine="61" d="M357.4037,132.1464 C385.8537,161.5864 404.3122,180.6958 431.4822,208.8258 " fill="none" id="User-Scenario" style="stroke:#181818;stroke-width:1.0;"/><line style="stroke:#181818;stroke-width:1.0;" x1="354.624" x2="346.98" y1="129.27" y2="121.36"/><ellipse cx="354.624" cy="129.27" fill="none" rx="4" ry="4" style="stroke:#181818;stroke-width:1.0;"/><line style="stroke:#181818;stroke-width:1.0;" x1="346.8833" x2="352.636" y1="127.016" y2="121.4567"/><line style="stroke:#181818;stroke-width:1.0;" x1="431.4822" x2="442.7942" y1="208.8258" y2="214.58"/><line style="stroke:#181818;stroke-width:1.0;" x1="431.4822" x2="431.2858" y1="208.8258" y2="214.58"/><line style="stroke:#181818;stroke-width:1.0;" x1="431.4822" x2="437.04" y1="208.8258" y2="214.58"/></g><!--link User to Session--><g id="link_User_Session"><path codeLine="62" d="M230.6628,127.0265 C201.3228,156.4665 177.0858,180.7821 149.0658,208.9121 " fill="none" id="User-Session" style="stroke:#181818;stroke-width:1.0;"/><line style="stroke:#181818;stroke-width:1.0;" x1="230.6532" x2="236.3196" y1="121.3696" y2="127.0168"/><line style="stroke:#181818;stroke-width:1.0;" x1="228.5354" x2="234.2019" y1="123.4945" y2="129.1418"/><line style="stroke:#181818;stroke-width:1.0;" x1="230.6628" x2="236.31" y1="127.0265" y2="121.36"/><line style="stroke:#181818;stroke-width:1.0;" x1="149.0658" x2="149.0879" y1="208.9121" y2="214.58"/><line style="stroke:#181818;stroke-width:1.0;" x1="149.0658" x2="137.7521" y1="208.9121" y2="214.58"/><line style="stroke:#181818;stroke-width:1.0;" x1="149.0658" x2="143.42" y1="208.9121" y2="214.58"/></g><!--link User to Device--><g id="link_User_Device"><path codeLine="63" d="M292.5,136.36 C292.5,155.08 292.5,153.3 292.5,173.5 " fill="none" id="User-Device" style="stroke:#181818;stroke-width:1.0;"/><line style="stroke:#181818;stroke-width:1.0;" x1="292.5" x2="292.5" y1="132.36" y2="121.36"/><ellipse cx="292.5" cy="132.36" fill="none" rx="4" ry="4" style="stroke:#181818;stroke-width:1.0;"/><line style="stroke:#181818;stroke-width:1.0;" x1="288.5" x2="296.5" y1="125.36" y2="125.36"/><line style="stroke:#181818;stroke-width:1.0;" x1="292.5" x2="300.5" y1="173.5" y2="181.5"/><line style="stroke:#181818;stroke-width:1.0;" x1="292.5" x2="284.5" y1="173.5" y2="181.5"/><line style="stroke:#181818;stroke-width:1.0;" x1="292.5" x2="292.5" y1="173.5" y2="181.5"/></g><!--link Device to DeviceCommand--><g id="link_Device_DeviceCommand"><path codeLine="65" d="M377.7865,356.8207 C400.7765,381.6707 410.2964,391.9584 432.7464,416.2184 " fill="none" id="Device-DeviceCommand" style="stroke:#181818;stroke-width:1.0;"/><line style="stroke:#181818;stroke-width:1.0;" x1="375.0701" x2="367.6" y1="353.8845" y2="345.81"/><ellipse cx="375.0701" cy="353.8845" fill="none" rx="4" ry="4" style="stroke:#181818;stroke-width:1.0;"/><line style="stroke:#181818;stroke-width:1.0;" x1="367.3802" x2="373.2526" y1="351.4626" y2="346.0298"/><line style="stroke:#181818;stroke-width:1.0;" x1="432.7464" x2="444.0516" y1="416.2184" y2="422.09"/><line style="stroke:#181818;stroke-width:1.0;" x1="432.7464" x2="432.3084" y1="416.2184" y2="422.09"/><line style="stroke:#181818;stroke-width:1.0;" x1="432.7464" x2="438.18" y1="416.2184" y2="422.09"/></g><!--link Device to DeviceBlobData--><g id="link_Device_DeviceBlobData"><path codeLine="66" d="M210.6309,357.0357 C186.0809,384.7357 174.2363,398.103 151.0063,424.313 " fill="none" id="Device-DeviceBlobData" style="stroke:#181818;stroke-width:1.0;"/><line style="stroke:#181818;stroke-width:1.0;" x1="213.284" x2="220.58" y1="354.0422" y2="345.81"/><ellipse cx="213.284" cy="354.0422" fill="none" rx="4" ry="4" style="stroke:#181818;stroke-width:1.0;"/><line style="stroke:#181818;stroke-width:1.0;" x1="214.9334" x2="220.9204" y1="346.1504" y2="351.4566"/><line style="stroke:#181818;stroke-width:1.0;" x1="151.0063" x2="151.687" y1="424.313" y2="430.3"/><line style="stroke:#181818;stroke-width:1.0;" x1="151.0063" x2="139.713" y1="424.313" y2="430.3"/><line style="stroke:#181818;stroke-width:1.0;" x1="151.0063" x2="145.7" y1="424.313" y2="430.3"/></g><!--link Device to DeviceReadings--><g id="link_Device_DeviceReadings"><path codeLine="67" d="M290.4152,360.8065 C289.8152,388.5065 289.6439,396.0919 289.0739,422.3019 " fill="none" id="Device-DeviceReadings" style="stroke:#181818;stroke-width:1.0;"/><line style="stroke:#181818;stroke-width:1.0;" x1="290.5018" x2="290.74" y1="356.8074" y2="345.81"/><ellipse cx="290.5018" cy="356.8074" fill="none" rx="4" ry="4" style="stroke:#181818;stroke-width:1.0;"/><line style="stroke:#181818;stroke-width:1.0;" x1="286.6543" x2="294.6524" y1="349.7224" y2="349.8957"/><line style="stroke:#181818;stroke-width:1.0;" x1="289.0739" x2="296.8981" y1="422.3019" y2="430.3"/><line style="stroke:#181818;stroke-width:1.0;" x1="289.0739" x2="280.9019" y1="422.3019" y2="430.3"/><line style="stroke:#181818;stroke-width:1.0;" x1="289.0739" x2="288.9" y1="422.3019" y2="430.3"/></g><!--link Scenario to DeviceCommand--><g id="link_Scenario_DeviceCommand"><path codeLine="68" d="M489.8014,330.5485 C492.8214,362.1685 493.4044,368.3419 496.8244,404.0619 " fill="none" id="Scenario-DeviceCommand" style="stroke:#181818;stroke-width:1.0;"/><line style="stroke:#181818;stroke-width:1.0;" x1="488.8506" x2="482.1172" y1="320.5938" y2="313.2005"/><line style="stroke:#181818;stroke-width:1.0;" x1="488.8506" x2="494.0628" y1="320.5938" y2="312.0595"/><line style="stroke:#181818;stroke-width:1.0;" x1="488.8506" x2="488.09" y1="320.5938" y2="312.63"/><ellipse cx="489.4211" cy="326.5666" fill="none" rx="4" ry="4" style="stroke:#181818;stroke-width:1.0;"/><line style="stroke:#181818;stroke-width:1.0;" x1="497.7775" x2="504.5127" y1="414.0164" y2="421.4081"/><line style="stroke:#181818;stroke-width:1.0;" x1="497.7775" x2="492.5673" y1="414.0164" y2="422.5519"/><line style="stroke:#181818;stroke-width:1.0;" x1="497.7775" x2="498.54" y1="414.0164" y2="421.98"/><ellipse cx="497.2057" cy="408.0437" fill="none" rx="4" ry="4" style="stroke:#181818;stroke-width:1.0;"/><text fill="#000000" font-family="sans-serif" font-size="13" lengthAdjust="spacing" textLength="330" x="496.16" y="388.9384">commands order in Scenario stored in junction table</text></g><!--SRC=[bLDDJyCm3BttL-GuXFe7UeGA2J4X1EgvyXApPJH95QU3QTj_9qswVcmJOxsaURQUdvrdr4wwBIi8BTibp7_tKh2C5SLppcPlBtS1IzDmQ52OCN8st521h8Ph3KJVnefo1RIAy259CF9_894q-de9Yedb5svZHYprKqkBeWINCISLaWDLZ-Xpt4YEDpGWzJ80t6YDtBKLfVuq6LkJqI7YjhLFHTseS1L8tCgwpHnQhWo7AU9WIHt9g7cE6gmqjmwuyOzIId7CVVAvXsd7ZqOfqE9MOk1HTTyTTGedrTXhCPz7bjh7h2-RCQaTcmq14MISYPogVAZC8WS7rsNMu5QZOKwVW5i4TsQ2VwjuHn3-sUcwYfxyj8v2xnnUJeVPWHke6eyAqomg_5DLsBMzITDTxumEsmSiRi0uBJQG99tDns3dW4kXuzWlnOx3I7fl7dpKdB3w0V7uHynljjSZzU1cSiRlP0kj6nqSvUtVDf_y0W00]--></g></svg>